HIERARCHY
ROOT Pelvis
{
	OFFSET 0.000000 0.000000 0.000000
	CHANNELS 6 Xposition Yposition Zposition Xrotation Yrotation Zrotation
	JOINT LeftUpLeg_virtual
	{
		OFFSET 0.000000 0.000000 0.000000
		CHANNELS 3 Xrotation Yrotation Zrotation
		JOINT LeftUpLeg
		{
			OFFSET 18.735201 -5.666702 -4.541200
			CHANNELS 3 Xrotation Yrotation Zrotation
			JOINT LeftLeg
			{
				OFFSET -0.021200 -31.938179 0.493100
				CHANNELS 3 Xrotation Yrotation Zrotation
				JOINT LeftFoot
				{
					OFFSET 0.021200 -31.938179 -4.336299
					CHANNELS 3 Xrotation Yrotation Zrotation
					JOINT LeftToeBase
					{
						OFFSET 0.943001 -26.722000 15.023500
						CHANNELS 3 Xrotation Yrotation Zrotation
						End Site
						{
							OFFSET 0 0 0
						}
					}
				}
			}
		}
	}
	JOINT RightUpLeg_virtual
	{
		OFFSET 0.000000 0.000000 0.000000
		CHANNELS 3 Xrotation Yrotation Zrotation
		JOINT RightUpLeg
		{
			OFFSET -18.735201 -5.666702 -4.541200
			CHANNELS 3 Xrotation Yrotation Zrotation
			JOINT RightLeg
			{
				OFFSET 0.018946 -31.938133 0.493100
				CHANNELS 3 Xrotation Yrotation Zrotation
				JOINT RightFoot
				{
					OFFSET -0.018946 -31.938126 -4.336299
					CHANNELS 3 Xrotation Yrotation Zrotation
					JOINT RightToeBase
					{
						OFFSET -0.943001 -26.722004 15.023500
						CHANNELS 3 Xrotation Yrotation Zrotation
						End Site
						{
							OFFSET 0 0 0
						}
					}
				}
			}
		}
	}
	JOINT Hips_virtual
	{
		OFFSET 0.000000 0.000000 0.000000
		CHANNELS 3 Xrotation Yrotation Zrotation
		JOINT Hips
		{
			OFFSET -0.000000 -0.000000 -0.000000
			CHANNELS 3 Xrotation Yrotation Zrotation
			JOINT Spine
			{
				OFFSET 0.000000 10.199997 -0.299500
				CHANNELS 3 Xrotation Yrotation Zrotation
				JOINT Spine1
				{
					OFFSET 0.000000 11.900002 -1.516600
					CHANNELS 3 Xrotation Yrotation Zrotation
					JOINT Spine2
					{
						OFFSET 0.000000 13.600006 -2.842500
						CHANNELS 3 Xrotation Yrotation Zrotation
						JOINT Neck_virtual
						{
							OFFSET 0.000000 0.000000 0.000000
							CHANNELS 3 Xrotation Yrotation Zrotation
							JOINT Neck
							{
								OFFSET 0.000000 9.624100 -2.890100
								CHANNELS 3 Xrotation Yrotation Zrotation
								JOINT Head
								{
									OFFSET 0.000000 14.068802 -1.351900
									CHANNELS 3 Xrotation Yrotation Zrotation
									End Site
									{
										OFFSET 0 0 0
									}
								}
							}
						}
						JOINT LeftShoulder_virtual
						{
							OFFSET 0.000000 0.000000 0.000000
							CHANNELS 3 Xrotation Yrotation Zrotation
							JOINT LeftShoulder
							{
								OFFSET 15.263000 10.923401 -0.547700
								CHANNELS 3 Xrotation Yrotation Zrotation
								JOINT LeftArm
								{
									OFFSET 25.438599 -2.830597 -13.032500
									CHANNELS 3 Xrotation Yrotation Zrotation
									JOINT LeftForeArm
									{
										OFFSET 29.960503 0.000000 0.000000
										CHANNELS 3 Xrotation Yrotation Zrotation
										JOINT LeftHand
										{
											OFFSET 27.849251 0.000000 0.000000
											CHANNELS 3 Xrotation Yrotation Zrotation
											End Site
											{
												OFFSET 0 0 0
											}
										}
									}
								}
							}
						}
						JOINT RightShoulder_virtual
						{
							OFFSET 0.000000 0.000000 0.000000
							CHANNELS 3 Xrotation Yrotation Zrotation
							JOINT RightShoulder
							{
								OFFSET -15.263000 10.923401 -0.547700
								CHANNELS 3 Xrotation Yrotation Zrotation
								JOINT RightArm
								{
									OFFSET -25.438599 -2.830597 -13.032500
									CHANNELS 3 Xrotation Yrotation Zrotation
									JOINT RightForeArm
									{
										OFFSET -29.960503 0.000000 0.000000
										CHANNELS 3 Xrotation Yrotation Zrotation
										JOINT RightHand
										{
											OFFSET -27.849251 0.000000 0.000000
											CHANNELS 3 Xrotation Yrotation Zrotation
											End Site
											{
												OFFSET 0 0 0
											}
										}
									}
								}
							}
						}
					}
				}
			}
		}
	}
}
MOTION
Frames: 13
Frame Time: 0.03333333
-5.444383 88.756042 1.201580 0.000000 0.000000 0.000000 1.766658 -44.712840 4.562699 -28.583493 5.066376 15.874109 17.739567 -9.106349 4.026269 7.899896 -2.688267 -22.026190 0.000000 0.000000 0.000000 1.766658 -44.712840 4.562699 -11.325978 -5.137622 -20.046670 32.967742 -10.235243 -9.089899 -16.568709 -8.857559 28.476247 0.000000 0.000000 0.000000 1.766658 -44.712840 4.562699 0.000000 0.000000 0.000000 6.688063 0.676755 -0.598580 -0.557036 1.560414 -1.610233 0.000000 0.000000 0.000000 -0.534574 1.560471 -1.609752 -3.824562 0.244816 4.106148 0.000000 0.000000 0.000000 -0.534574 1.560471 -1.609752 -8.631162 -5.317958 -15.297515 0.075346 -2.626985 -31.066822 42.317506 -37.063359 15.465983 0.000000 0.000000 0.000000 -0.534574 1.560471 -1.609752 -0.620556 15.164825 -23.726496 -69.097049 11.570648 13.062491 -66.678410 31.186241 49.367508 0.000000 0.000000 0.000000 
-4.527173 88.496643 0.950085 0.000000 0.000000 0.000000 1.951956 -46.620689 5.019442 -29.120604 5.290995 16.233082 19.557932 -7.751536 3.342109 6.614453 -2.421787 -21.529436 0.000000 0.000000 0.000000 1.951956 -46.620689 5.019442 -14.200241 -3.946314 -20.657632 34.831964 -8.709037 -10.121349 -16.118147 -8.579895 28.929895 0.000000 0.000000 0.000000 1.951956 -46.620689 5.019442 0.000000 0.000002 0.000000 6.981986 0.712390 -0.475092 0.030504 1.602067 -1.410632 0.000000 0.000000 0.000000 0.052969 1.602121 -1.410150 -3.833404 1.122127 3.952759 0.000000 0.000000 0.000000 0.052969 1.602121 -1.410150 -8.451883 -5.621947 -14.376199 -0.075749 -1.533863 -32.297929 42.235366 -38.238572 16.524091 0.000000 0.000000 0.000000 0.052969 1.602121 -1.410150 -1.838005 15.913859 -17.234358 -61.208597 13.459269 13.486395 -68.704449 40.806525 53.529849 0.000000 0.000000 0.000000 
-3.635076 88.175362 0.710461 0.000000 0.000000 0.000000 2.189028 -48.472579 5.514694 -30.164981 5.361316 16.617405 21.970210 -6.497635 2.683942 5.616562 -2.280056 -20.991553 0.000000 0.000000 0.000000 2.189028 -48.472579 5.514694 -17.171446 -2.755292 -21.548885 36.965366 -6.952591 -10.374717 -15.882442 -8.167400 28.930683 0.000000 0.000000 0.000000 2.189028 -48.472579 5.514694 0.000000 0.000001 0.000000 7.348642 0.749878 -0.386411 0.763978 1.639956 -1.283004 0.000000 0.000000 0.000000 0.786441 1.639999 -1.282523 -3.883287 1.916814 3.742101 0.000000 0.000000 0.000000 0.786441 1.639999 -1.282523 -8.246973 -6.260971 -13.419150 -0.679676 -0.986887 -33.318684 40.457382 -38.710053 16.172962 0.000000 0.000000 0.000000 0.786441 1.639999 -1.282523 -3.097944 16.714844 -10.628246 -52.210448 15.138915 12.803054 -72.258484 47.887607 57.121306 0.000000 0.000000 0.000000 
-2.793463 87.839516 0.443119 0.000000 0.000000 0.000000 2.482366 -50.199169 6.044054 -31.221461 5.454746 16.946200 24.365223 -5.384064 2.045221 4.455113 -2.084544 -20.200631 0.000000 0.000000 0.000000 2.482366 -50.199169 6.044054 -20.174191 -1.742764 -22.643110 39.133723 -5.048717 -10.013290 -15.752298 -7.569479 28.551799 0.000000 0.000000 0.000000 2.482366 -50.199169 6.044054 0.000000 -0.000001 0.000000 7.738908 0.805614 -0.342594 1.545305 1.715452 -1.217393 0.000000 0.000000 0.000000 1.567760 1.715545 -1.216919 -3.939141 2.608163 3.512037 0.000000 0.000000 0.000000 1.567760 1.715545 -1.216919 -8.046777 -7.136061 -12.600207 -1.873252 -1.038001 -33.862596 37.901389 -38.184541 14.869515 0.000000 0.000000 0.000000 1.567760 1.715545 -1.216919 -4.357183 17.398589 -4.255187 -42.601802 16.559334 11.296996 -74.448789 51.725924 57.873183 0.000000 0.000000 0.000000 
-2.059670 87.408081 0.177700 0.000000 0.000000 0.000000 2.869230 -51.642681 6.599539 -32.592894 5.486493 17.313744 27.120029 -4.553702 1.430668 3.027931 -1.878258 -19.297308 0.000000 0.000000 0.000000 2.869230 -51.642681 6.599539 -23.037890 -0.816049 -23.495373 41.331869 -3.454341 -9.770439 -15.751360 -7.044513 28.324675 0.000000 0.000000 0.000000 2.869230 -51.642681 6.599539 0.000000 0.000000 0.000000 8.078007 0.815954 -0.329982 2.223406 1.704152 -1.199200 0.000000 0.000000 0.000000 2.245871 1.704221 -1.198721 -3.978681 3.207410 3.315428 0.000000 0.000000 0.000000 2.245871 1.704221 -1.198721 -7.843774 -7.966330 -11.756801 -3.612930 -1.560438 -34.142336 35.196402 -36.782713 13.022779 0.000000 0.000000 0.000000 2.245871 1.704221 -1.198721 -5.656803 18.013326 2.007449 -33.568375 17.849448 9.607804 -72.924762 55.314478 53.804197 0.000000 0.000000 0.000000 
-1.450064 86.884689 -0.043224 0.000000 0.000000 0.000000 3.210257 -52.759766 6.999512 -34.152701 5.314866 17.874863 29.972649 -4.070596 0.822815 1.785496 -1.710949 -18.751972 0.000000 0.000000 0.000000 3.210257 -52.759766 6.999512 -25.558694 0.021647 -24.111696 43.524967 -2.254462 -9.513216 -15.907205 -6.618445 28.116074 0.000000 0.000000 0.000000 3.210257 -52.759766 6.999512 0.000000 -0.000001 0.000000 8.355932 0.782872 -0.330130 2.778446 1.612268 -1.199969 0.000000 0.000000 0.000000 2.800894 1.612377 -1.199494 -3.968928 3.681880 3.164463 0.000000 0.000000 0.000000 2.800894 1.612377 -1.199494 -7.645248 -8.632768 -10.901457 -5.617775 -2.200403 -34.209255 32.381497 -35.183746 10.853035 0.000000 0.000000 0.000000 2.800894 1.612377 -1.199494 -6.985795 18.396611 8.015036 -25.184499 18.568889 8.157963 -65.263803 61.460399 42.717584 0.000000 0.000000 0.000000 
-0.957276 86.372681 -0.199104 0.000000 0.000000 0.000000 3.596059 -53.741889 7.454236 -35.536948 5.150269 18.414719 32.511383 -3.698214 0.206538 0.666448 -1.572929 -18.274207 0.000000 0.000000 0.000000 3.596059 -53.741889 7.454236 -27.834322 0.751586 -24.705672 45.494032 -1.180052 -9.253697 -16.083842 -6.193457 27.913556 0.000000 0.000000 0.000000 3.596059 -53.741889 7.454236 0.000000 -0.000003 0.000000 8.594249 0.781218 -0.359272 3.255239 1.585383 -1.255230 0.000000 0.000000 0.000000 3.277702 1.585506 -1.254764 -3.908970 4.041081 2.976907 0.000000 0.000000 0.000000 3.277702 1.585506 -1.254764 -7.503301 -9.227964 -10.396443 -7.610445 -2.682973 -33.789707 29.430985 -33.992738 8.635037 0.000000 0.000000 0.000000 3.277702 1.585506 -1.254764 -8.052892 18.038376 12.691957 -18.399362 18.795371 6.802703 -54.584239 62.948519 29.891855 0.000000 0.000000 0.000000 
-0.635443 85.895752 -0.267311 0.000000 0.000000 0.000000 4.019637 -54.451962 8.040610 -36.663663 5.054391 18.827375 34.548606 -3.499929 -0.453464 -0.259442 -1.473636 -17.830878 0.000000 0.000000 0.000000 4.019637 -54.451962 8.040610 -29.747759 1.356466 -25.309987 47.285721 -0.380343 -9.132102 -16.406114 -5.838704 27.842991 0.000000 0.000000 0.000000 4.019637 -54.451962 8.040610 0.000000 -0.000002 0.000000 8.825517 0.775013 -0.424885 3.718437 1.549873 -1.393074 0.000000 0.000000 0.000000 3.740896 1.549924 -1.392578 -3.870264 4.331197 2.750416 0.000000 0.000000 0.000000 3.740896 1.549924 -1.392578 -7.386784 -9.832716 -10.042064 -9.608499 -2.869045 -33.294747 26.547921 -33.193340 6.703365 0.000000 0.000000 0.000000 3.740896 1.549924 -1.392578 -8.639355 17.153446 15.531102 -13.521054 18.441250 6.910320 -40.230347 63.989433 14.132694 0.000000 0.000000 0.000000 
-0.469151 85.393364 -0.258259 0.000000 0.000000 0.000000 4.172542 -54.829962 8.412796 -37.641002 4.815624 19.109213 36.498086 -3.457003 -0.981677 -1.067021 -1.395853 -17.597540 0.000000 0.000000 0.000000 4.172542 -54.829962 8.412796 -31.168523 1.829127 -25.902797 49.128212 0.063628 -9.116379 -17.006773 -5.600958 27.929989 0.000000 0.000000 0.000000 4.172542 -54.829962 8.412796 0.000000 0.000002 0.000000 9.035430 0.706259 -0.498156 4.137794 1.395185 -1.552598 0.000000 0.000000 0.000000 4.160236 1.395332 -1.552140 -3.825018 4.578558 2.545879 0.000000 0.000000 0.000000 4.160236 1.395332 -1.552140 -7.318227 -10.260845 -9.889100 -11.544644 -2.680778 -32.788757 23.982831 -32.859033 5.369311 0.000000 0.000000 0.000000 4.160236 1.395332 -1.552140 -8.617151 16.244802 15.900378 -11.562884 17.093464 9.157974 -24.973219 64.166485 -1.536181 0.000000 0.000000 0.000000 
-0.395686 84.928680 -0.189209 0.000000 0.000000 0.000000 4.020226 -55.046912 8.490962 -38.375011 4.528198 19.219281 38.258970 -4.484892 -1.423081 -1.745417 -0.283962 -17.262769 0.000000 0.000000 0.000000 4.020226 -55.046912 8.490962 -32.136245 2.125345 -26.507520 50.793047 0.398794 -9.095695 -17.690834 -5.397810 28.043980 0.000000 0.000000 0.000000 4.020226 -55.046912 8.490962 0.000000 -0.000002 0.000000 9.205395 0.571439 -0.578812 4.475394 1.115468 -1.721061 0.000000 0.000000 0.000000 4.497849 1.115578 -1.720587 -3.712225 4.802191 2.381445 0.000000 0.000000 0.000000 4.497849 1.115578 -1.720587 -7.233354 -10.514094 -9.561537 -13.398750 -1.925788 -32.606555 21.614356 -33.030505 4.504184 0.000000 0.000000 0.000000 4.497849 1.115578 -1.720587 -8.490636 15.483023 15.649879 -11.243388 15.233924 11.240570 -16.407083 62.993974 -9.612948 0.000000 0.000000 0.000000 
-0.396005 84.514053 -0.091183 0.000000 0.000000 0.000000 3.834986 -55.266175 8.525767 -38.932690 4.332700 19.424003 39.823985 -4.477913 -1.838253 -2.394144 -0.319368 -16.993007 0.000000 0.000000 0.000000 3.834986 -55.266175 8.525767 -32.944041 2.317367 -27.109238 52.268528 0.778612 -9.056445 -18.373212 -5.173213 28.101905 0.000000 0.000000 0.000000 3.834986 -55.266175 8.525767 0.000000 -0.000001 0.000000 9.362554 0.415967 -0.683215 4.786496 0.795133 -1.932437 0.000000 0.000000 0.000000 4.808974 0.795194 -1.931948 -3.626316 5.003531 2.234578 0.000000 0.000000 0.000000 4.808974 0.795194 -1.931948 -7.180858 -10.661775 -9.429855 -15.028441 -0.723894 -32.230061 19.162893 -33.902211 3.747565 0.000000 0.000000 0.000000 4.808974 0.795194 -1.931948 -8.280230 14.857331 14.941797 -12.156950 12.869929 12.857510 -12.715142 62.638777 -12.056314 0.000000 0.000000 0.000000 
-0.465680 84.163902 0.016453 0.000000 0.000000 0.000000 3.824161 -55.542429 8.707695 -39.367233 4.319434 19.829873 41.094451 -4.628843 -2.422467 -3.051915 -0.359250 -16.728636 0.000000 0.000000 0.000000 3.824161 -55.542429 8.707695 -33.759077 2.441871 -27.694095 53.531331 1.236850 -8.982968 -18.988682 -4.910673 28.044311 0.000000 0.000000 0.000000 3.824161 -55.542429 8.707695 0.000000 -0.000002 0.000000 9.509994 0.294475 -0.809654 5.078629 0.539036 -2.188484 0.000000 0.000000 0.000000 5.101103 0.539205 -2.188031 -3.621651 5.176237 2.087185 0.000000 0.000000 0.000000 5.101103 0.539205 -2.188031 -7.120198 -10.805060 -9.338924 -16.436017 0.626567 -31.771639 16.538077 -35.277265 2.858592 0.000000 0.000000 0.000000 5.101103 0.539205 -2.188031 -8.037802 14.227630 14.097033 -13.816686 9.856818 14.114597 -10.098018 63.636422 -12.895458 0.000000 0.000000 0.000000 
-0.578818 83.875511 0.130379 0.000000 0.000000 0.000000 3.925579 -55.904661 8.969139 -39.679636 4.487852 20.410653 42.085966 -4.878924 -3.149400 -3.610173 -0.421076 -16.367553 0.000000 0.000000 0.000000 3.925579 -55.904661 8.969139 -34.559173 2.520367 -28.210739 54.573307 1.733204 -8.907909 -19.497610 -4.617222 27.887360 0.000000 0.000000 0.000000 3.925579 -55.904661 8.969139 -0.000001 -0.000003 -0.000000 9.633541 0.216836 -0.948375 5.323776 0.368895 -2.467288 0.000000 0.000000 0.000000 5.346240 0.369060 -2.466831 -3.631285 5.323711 1.939085 0.000000 0.000000 0.000000 5.346240 0.369060 -2.466831 -7.040115 -10.913620 -9.217255 -17.628150 1.771633 -31.379156 14.126884 -36.679994 2.006866 0.000000 0.000000 0.000000 5.346240 0.369060 -2.466831 -7.792442 13.653872 13.226425 -15.761638 6.528468 15.031809 -7.609247 65.185966 -13.426549 0.000000 0.000000 0.000000 
